<?xml version="1.0" encoding="UTF-8" standalone="no" ?>
<!DOCTYPE svg PUBLIC "-//W3C//DTD SVG 1.1//EN" "http://www.w3.org/Graphics/SVG/1.1/DTD/svg11.dtd">
<svg xmlns="http://www.w3.org/2000/svg" xmlns:xlink="http://www.w3.org/1999/xlink" version="1.1" width="1280" height="1024" viewBox="0 0 1280 1024" xml:space="preserve">
<desc>Created with Fabric.js 3.6.3</desc>
<defs>
</defs>
<g transform="matrix(1.9692780337941629 0 0 1.9692780337941629 640.0153846153846 512.012312418764)" id="background-logo"  >
<rect style="stroke: none; stroke-width: 1; stroke-dasharray: none; stroke-linecap: butt; stroke-dashoffset: 0; stroke-linejoin: miter; stroke-miterlimit: 4; fill: rgb(0,0,0); fill-rule: nonzero; opacity: 1;"  paint-order="stroke"  x="-325" y="-260" rx="0" ry="0" width="650" height="520" />
</g>
<g transform="matrix(1.9692780337941629 0 0 1.9692780337941629 640.0153846153846 363.2904713079749)" id="logo-logo"  >
<g style=""  paint-order="stroke"   >
		<g transform="matrix(1.297597335741646 0 0 1.297597335741646 0 2.842171e-14)"  >
<g style=""  paint-order="stroke"   >
		<g transform="matrix(1 0 0 1 0 0)"  >
<path style="stroke: none; stroke-width: 1; stroke-dasharray: none; stroke-linecap: butt; stroke-dashoffset: 0; stroke-linejoin: miter; stroke-miterlimit: 4; fill: rgb(254,203,23); fill-rule: nonzero; opacity: 1;"  paint-order="stroke"  transform=" translate(-100, -100)" d="M 100 200 C 44.9 200 0 155.1 0 100 S 44.9 0 100 0 s 100 44.9 100 100 S 155.1 200 100 200 z M 100 3.8 C 46.9 3.8 3.8 46.9 3.8 100 s 43.2 96.2 96.2 96.2 s 96.2 -43.2 96.2 -96.2 S 153.1 3.8 100 3.8 z" stroke-linecap="round" />
</g>
		<g transform="matrix(1 0 0 1 0 0)"  >
<path style="stroke: none; stroke-width: 1; stroke-dasharray: none; stroke-linecap: butt; stroke-dashoffset: 0; stroke-linejoin: miter; stroke-miterlimit: 4; fill: rgb(254,203,23); fill-rule: nonzero; opacity: 1;"  paint-order="stroke"  transform=" translate(-100, -100)" d="M 100 193.6 c -51.6 0 -93.6 -42 -93.6 -93.6 S 48.4 6.4 100 6.4 s 93.6 42 93.6 93.6 S 151.6 193.6 100 193.6 z M 100 7.3 C 48.9 7.3 7.3 48.9 7.3 100 s 41.6 92.7 92.7 92.7 s 92.7 -41.6 92.7 -92.7 S 151.1 7.3 100 7.3 z" stroke-linecap="round" />
</g>
		<g transform="matrix(1 0 0 1 0 0)"  >
<path style="stroke: none; stroke-width: 1; stroke-dasharray: none; stroke-linecap: butt; stroke-dashoffset: 0; stroke-linejoin: miter; stroke-miterlimit: 4; fill: rgb(254,203,23); fill-rule: nonzero; opacity: 1;"  paint-order="stroke"  transform=" translate(-100, -100)" d="M 100 178.1 c -43 0 -78.1 -35 -78.1 -78.1 S 57 21.9 100 21.9 c 43 0 78.1 35 78.1 78.1 S 143 178.1 100 178.1 z M 100 22.9 c -42.5 0 -77.1 34.6 -77.1 77.1 s 34.6 77.1 77.1 77.1 c 42.5 0 77.1 -34.6 77.1 -77.1 S 142.5 22.9 100 22.9 z" stroke-linecap="round" />
</g>
		<g transform="matrix(0.7071 -0.7070999999999998 0.7070999999999998 0.7071 85.69426999999999 -0.00856999999997754)"  >
<rect style="stroke: none; stroke-width: 1; stroke-dasharray: none; stroke-linecap: butt; stroke-dashoffset: 0; stroke-linejoin: miter; stroke-miterlimit: 4; fill: rgb(254,203,23); fill-rule: nonzero; opacity: 1;"  paint-order="stroke"  x="-1.5" y="-1.5" rx="0" ry="0" width="3" height="3" />
</g>
		<g transform="matrix(0.6138000000000001 -0.7893999999999999 0.7894 0.6138000000000001 84.95818 -10.759639999999976)"  >
<rect style="stroke: none; stroke-width: 1; stroke-dasharray: none; stroke-linecap: butt; stroke-dashoffset: 0; stroke-linejoin: miter; stroke-miterlimit: 4; fill: rgb(254,203,23); fill-rule: nonzero; opacity: 1;"  paint-order="stroke"  x="-1.5" y="-1.5" rx="0" ry="0" width="3" height="3" />
</g>
		<g transform="matrix(0.5119000000000001 -0.859 0.859 0.5119 83.07909000000001 -21.118589999999983)"  >
<rect style="stroke: none; stroke-width: 1; stroke-dasharray: none; stroke-linecap: butt; stroke-dashoffset: 0; stroke-linejoin: miter; stroke-miterlimit: 4; fill: rgb(254,203,23); fill-rule: nonzero; opacity: 1;"  paint-order="stroke"  x="-1.5" y="-1.5" rx="0" ry="0" width="3" height="3" />
</g>
		<g transform="matrix(0.40360000000000007 -0.9149000000000002 0.9149 0.4036 79.87844000000001 -30.960710000000034)"  >
<rect style="stroke: none; stroke-width: 1; stroke-dasharray: none; stroke-linecap: butt; stroke-dashoffset: 0; stroke-linejoin: miter; stroke-miterlimit: 4; fill: rgb(254,203,23); fill-rule: nonzero; opacity: 1;"  paint-order="stroke"  x="-1.5" y="-1.5" rx="0" ry="0" width="3" height="3" />
</g>
		<g transform="matrix(0.291 -0.9567 0.9566999999999999 0.2909999999999999 75.62169 -40.23292000000001)"  >
<rect style="stroke: none; stroke-width: 1; stroke-dasharray: none; stroke-linecap: butt; stroke-dashoffset: 0; stroke-linejoin: miter; stroke-miterlimit: 4; fill: rgb(254,203,23); fill-rule: nonzero; opacity: 1;"  paint-order="stroke"  x="-1.5" y="-1.5" rx="0" ry="0" width="3" height="3" />
</g>
		<g transform="matrix(0.17559999999999992 -0.9845000000000002 0.9845000000000002 0.17559999999999992 70.29388 -48.93115000000003)"  >
<rect style="stroke: none; stroke-width: 1; stroke-dasharray: none; stroke-linecap: butt; stroke-dashoffset: 0; stroke-linejoin: miter; stroke-miterlimit: 4; fill: rgb(254,203,23); fill-rule: nonzero; opacity: 1;"  paint-order="stroke"  x="-1.5" y="-1.5" rx="0" ry="0" width="3" height="3" />
</g>
		<g transform="matrix(0.058671600000000025 -0.9982999999999999 0.9982999999999999 0.058671600000000025 64.07303955999998 -56.94978403999997)"  >
<rect style="stroke: none; stroke-width: 1; stroke-dasharray: none; stroke-linecap: butt; stroke-dashoffset: 0; stroke-linejoin: miter; stroke-miterlimit: 4; fill: rgb(254,203,23); fill-rule: nonzero; opacity: 1;"  paint-order="stroke"  x="-1.5" y="-1.5" rx="0" ry="0" width="3" height="3" />
</g>
		<g transform="matrix(0.9983 -0.05867142999999999 0.05867142999999999 0.9983 56.90127433700002 -64.09867736700001)"  >
<rect style="stroke: none; stroke-width: 1; stroke-dasharray: none; stroke-linecap: butt; stroke-dashoffset: 0; stroke-linejoin: miter; stroke-miterlimit: 4; fill: rgb(254,203,23); fill-rule: nonzero; opacity: 1;"  paint-order="stroke"  x="-1.5" y="-1.5" rx="0" ry="0" width="3" height="3" />
</g>
		<g transform="matrix(0.9845000000000002 -0.1756 0.1756 0.9845000000000002 49.01132000000001 -70.31465)"  >
<rect style="stroke: none; stroke-width: 1; stroke-dasharray: none; stroke-linecap: butt; stroke-dashoffset: 0; stroke-linejoin: miter; stroke-miterlimit: 4; fill: rgb(254,203,23); fill-rule: nonzero; opacity: 1;"  paint-order="stroke"  x="-1.5" y="-1.5" rx="0" ry="0" width="3" height="3" />
</g>
		<g transform="matrix(0.9567 -0.291 0.2909999999999999 0.9566999999999999 40.30901 -75.61412)"  >
<rect style="stroke: none; stroke-width: 1; stroke-dasharray: none; stroke-linecap: butt; stroke-dashoffset: 0; stroke-linejoin: miter; stroke-miterlimit: 4; fill: rgb(254,203,23); fill-rule: nonzero; opacity: 1;"  paint-order="stroke"  x="-1.5" y="-1.5" rx="0" ry="0" width="3" height="3" />
</g>
		<g transform="matrix(0.9149000000000002 -0.4036 0.40359999999999996 0.9149 31.001360000000005 -79.91191)"  >
<rect style="stroke: none; stroke-width: 1; stroke-dasharray: none; stroke-linecap: butt; stroke-dashoffset: 0; stroke-linejoin: miter; stroke-miterlimit: 4; fill: rgb(254,203,23); fill-rule: nonzero; opacity: 1;"  paint-order="stroke"  x="-1.5" y="-1.5" rx="0" ry="0" width="3" height="3" />
</g>
		<g transform="matrix(0.859 -0.5119000000000001 0.5119 0.859 21.079609999999988 -83.09599)"  >
<rect style="stroke: none; stroke-width: 1; stroke-dasharray: none; stroke-linecap: butt; stroke-dashoffset: 0; stroke-linejoin: miter; stroke-miterlimit: 4; fill: rgb(254,203,23); fill-rule: nonzero; opacity: 1;"  paint-order="stroke"  x="-1.5" y="-1.5" rx="0" ry="0" width="3" height="3" />
</g>
		<g transform="matrix(0.7893999999999999 -0.6138 0.6138 0.7894 10.717280000000002 -84.97196)"  >
<rect style="stroke: none; stroke-width: 1; stroke-dasharray: none; stroke-linecap: butt; stroke-dashoffset: 0; stroke-linejoin: miter; stroke-miterlimit: 4; fill: rgb(254,203,23); fill-rule: nonzero; opacity: 1;"  paint-order="stroke"  x="-1.5" y="-1.5" rx="0" ry="0" width="3" height="3" />
</g>
		<g transform="matrix(0.7071 -0.7070999999999998 0.7070999999999998 0.7071 -0.009870000000006485 -85.69566999999999)"  >
<rect style="stroke: none; stroke-width: 1; stroke-dasharray: none; stroke-linecap: butt; stroke-dashoffset: 0; stroke-linejoin: miter; stroke-miterlimit: 4; fill: rgb(254,203,23); fill-rule: nonzero; opacity: 1;"  paint-order="stroke"  x="-1.5" y="-1.5" rx="0" ry="0" width="3" height="3" />
</g>
		<g transform="matrix(0.6138000000000001 -0.7893999999999999 0.7894 0.6138000000000001 -10.767740000000003 -84.96358000000001)"  >
<rect style="stroke: none; stroke-width: 1; stroke-dasharray: none; stroke-linecap: butt; stroke-dashoffset: 0; stroke-linejoin: miter; stroke-miterlimit: 4; fill: rgb(254,203,23); fill-rule: nonzero; opacity: 1;"  paint-order="stroke"  x="-1.5" y="-1.5" rx="0" ry="0" width="3" height="3" />
</g>
		<g transform="matrix(0.5119000000000001 -0.859 0.859 0.5119 -21.12639 -83.08119)"  >
<rect style="stroke: none; stroke-width: 1; stroke-dasharray: none; stroke-linecap: butt; stroke-dashoffset: 0; stroke-linejoin: miter; stroke-miterlimit: 4; fill: rgb(254,203,23); fill-rule: nonzero; opacity: 1;"  paint-order="stroke"  x="-1.5" y="-1.5" rx="0" ry="0" width="3" height="3" />
</g>
		<g transform="matrix(0.40360000000000007 -0.9149000000000002 0.9149 0.4036 -30.966109999999986 -79.88234)"  >
<rect style="stroke: none; stroke-width: 1; stroke-dasharray: none; stroke-linecap: butt; stroke-dashoffset: 0; stroke-linejoin: miter; stroke-miterlimit: 4; fill: rgb(254,203,23); fill-rule: nonzero; opacity: 1;"  paint-order="stroke"  x="-1.5" y="-1.5" rx="0" ry="0" width="3" height="3" />
</g>
		<g transform="matrix(0.291 -0.9567 0.9566999999999999 0.2909999999999999 -40.240120000000005 -75.61319)"  >
<rect style="stroke: none; stroke-width: 1; stroke-dasharray: none; stroke-linecap: butt; stroke-dashoffset: 0; stroke-linejoin: miter; stroke-miterlimit: 4; fill: rgb(254,203,23); fill-rule: nonzero; opacity: 1;"  paint-order="stroke"  x="-1.5" y="-1.5" rx="0" ry="0" width="3" height="3" />
</g>
		<g transform="matrix(0.17559999999999992 -0.9845000000000002 0.9845000000000002 0.17559999999999992 -48.92525 -70.28438)"  >
<rect style="stroke: none; stroke-width: 1; stroke-dasharray: none; stroke-linecap: butt; stroke-dashoffset: 0; stroke-linejoin: miter; stroke-miterlimit: 4; fill: rgb(254,203,23); fill-rule: nonzero; opacity: 1;"  paint-order="stroke"  x="-1.5" y="-1.5" rx="0" ry="0" width="3" height="3" />
</g>
		<g transform="matrix(0.058671600000000025 -0.9982999999999999 0.9982999999999999 0.058671600000000025 -56.94518404 -64.07301956)"  >
<rect style="stroke: none; stroke-width: 1; stroke-dasharray: none; stroke-linecap: butt; stroke-dashoffset: 0; stroke-linejoin: miter; stroke-miterlimit: 4; fill: rgb(254,203,23); fill-rule: nonzero; opacity: 1;"  paint-order="stroke"  x="-1.5" y="-1.5" rx="0" ry="0" width="3" height="3" />
</g>
		<g transform="matrix(0.9983 -0.05867142999999999 0.05867142999999999 0.9983 -64.098591367 -56.896774337)"  >
<rect style="stroke: none; stroke-width: 1; stroke-dasharray: none; stroke-linecap: butt; stroke-dashoffset: 0; stroke-linejoin: miter; stroke-miterlimit: 4; fill: rgb(254,203,23); fill-rule: nonzero; opacity: 1;"  paint-order="stroke"  x="-1.5" y="-1.5" rx="0" ry="0" width="3" height="3" />
</g>
		<g transform="matrix(0.9845000000000002 -0.1756 0.1756 0.9845000000000002 -70.30515 -49.00531999999999)"  >
<rect style="stroke: none; stroke-width: 1; stroke-dasharray: none; stroke-linecap: butt; stroke-dashoffset: 0; stroke-linejoin: miter; stroke-miterlimit: 4; fill: rgb(254,203,23); fill-rule: nonzero; opacity: 1;"  paint-order="stroke"  x="-1.5" y="-1.5" rx="0" ry="0" width="3" height="3" />
</g>
		<g transform="matrix(0.9567 -0.291 0.2909999999999999 0.9566999999999999 -75.60562 -40.31621)"  >
<rect style="stroke: none; stroke-width: 1; stroke-dasharray: none; stroke-linecap: butt; stroke-dashoffset: 0; stroke-linejoin: miter; stroke-miterlimit: 4; fill: rgb(254,203,23); fill-rule: nonzero; opacity: 1;"  paint-order="stroke"  x="-1.5" y="-1.5" rx="0" ry="0" width="3" height="3" />
</g>
		<g transform="matrix(0.9149000000000002 -0.4036 0.40359999999999996 0.9149 -79.91581 -31.006659999999997)"  >
<rect style="stroke: none; stroke-width: 1; stroke-dasharray: none; stroke-linecap: butt; stroke-dashoffset: 0; stroke-linejoin: miter; stroke-miterlimit: 4; fill: rgb(254,203,23); fill-rule: nonzero; opacity: 1;"  paint-order="stroke"  x="-1.5" y="-1.5" rx="0" ry="0" width="3" height="3" />
</g>
		<g transform="matrix(0.859 -0.5119000000000001 0.5119 0.859 -83.09809 -21.08740999999999)"  >
<rect style="stroke: none; stroke-width: 1; stroke-dasharray: none; stroke-linecap: butt; stroke-dashoffset: 0; stroke-linejoin: miter; stroke-miterlimit: 4; fill: rgb(254,203,23); fill-rule: nonzero; opacity: 1;"  paint-order="stroke"  x="-1.5" y="-1.5" rx="0" ry="0" width="3" height="3" />
</g>
		<g transform="matrix(0.7893999999999999 -0.6138 0.6138 0.7894 -85.03873999999999 -10.804320000000004)"  >
<rect style="stroke: none; stroke-width: 1; stroke-dasharray: none; stroke-linecap: butt; stroke-dashoffset: 0; stroke-linejoin: miter; stroke-miterlimit: 4; fill: rgb(254,203,23); fill-rule: nonzero; opacity: 1;"  paint-order="stroke"  x="-1.5" y="-1.5" rx="0" ry="0" width="3" height="3" />
</g>
		<g transform="matrix(0.7071 -0.7070999999999998 0.7070999999999998 0.7071 -85.69697000000001 0.008569999999991751)"  >
<rect style="stroke: none; stroke-width: 1; stroke-dasharray: none; stroke-linecap: butt; stroke-dashoffset: 0; stroke-linejoin: miter; stroke-miterlimit: 4; fill: rgb(254,203,23); fill-rule: nonzero; opacity: 1;"  paint-order="stroke"  x="-1.5" y="-1.5" rx="0" ry="0" width="3" height="3" />
</g>
		<g transform="matrix(0.6138000000000001 -0.7893999999999999 0.7894 0.6138000000000001 -85.05062 10.700959999999995)"  >
<rect style="stroke: none; stroke-width: 1; stroke-dasharray: none; stroke-linecap: butt; stroke-dashoffset: 0; stroke-linejoin: miter; stroke-miterlimit: 4; fill: rgb(254,203,23); fill-rule: nonzero; opacity: 1;"  paint-order="stroke"  x="-1.5" y="-1.5" rx="0" ry="0" width="3" height="3" />
</g>
		<g transform="matrix(0.5119000000000001 -0.859 0.859 0.5119 -83.08889 21.124290000000002)"  >
<rect style="stroke: none; stroke-width: 1; stroke-dasharray: none; stroke-linecap: butt; stroke-dashoffset: 0; stroke-linejoin: miter; stroke-miterlimit: 4; fill: rgb(254,203,23); fill-rule: nonzero; opacity: 1;"  paint-order="stroke"  x="-1.5" y="-1.5" rx="0" ry="0" width="3" height="3" />
</g>
		<g transform="matrix(0.40360000000000007 -0.9149000000000002 0.9149 0.4036 -79.88774000000001 30.962109999999996)"  >
<rect style="stroke: none; stroke-width: 1; stroke-dasharray: none; stroke-linecap: butt; stroke-dashoffset: 0; stroke-linejoin: miter; stroke-miterlimit: 4; fill: rgb(254,203,23); fill-rule: nonzero; opacity: 1;"  paint-order="stroke"  x="-1.5" y="-1.5" rx="0" ry="0" width="3" height="3" />
</g>
		<g transform="matrix(0.291 -0.9567 0.9566999999999999 0.2909999999999999 -75.62039 40.24852000000001)"  >
<rect style="stroke: none; stroke-width: 1; stroke-dasharray: none; stroke-linecap: butt; stroke-dashoffset: 0; stroke-linejoin: miter; stroke-miterlimit: 4; fill: rgb(254,203,23); fill-rule: nonzero; opacity: 1;"  paint-order="stroke"  x="-1.5" y="-1.5" rx="0" ry="0" width="3" height="3" />
</g>
		<g transform="matrix(0.17559999999999992 -0.9845000000000002 0.9845000000000002 0.17559999999999992 -70.27838 48.934649999999976)"  >
<rect style="stroke: none; stroke-width: 1; stroke-dasharray: none; stroke-linecap: butt; stroke-dashoffset: 0; stroke-linejoin: miter; stroke-miterlimit: 4; fill: rgb(254,203,23); fill-rule: nonzero; opacity: 1;"  paint-order="stroke"  x="-1.5" y="-1.5" rx="0" ry="0" width="3" height="3" />
</g>
		<g transform="matrix(0.058671600000000025 -0.9982999999999999 0.9982999999999999 0.058671600000000025 -64.06851956 56.94520403999999)"  >
<rect style="stroke: none; stroke-width: 1; stroke-dasharray: none; stroke-linecap: butt; stroke-dashoffset: 0; stroke-linejoin: miter; stroke-miterlimit: 4; fill: rgb(254,203,23); fill-rule: nonzero; opacity: 1;"  paint-order="stroke"  x="-1.5" y="-1.5" rx="0" ry="0" width="3" height="3" />
</g>
		<g transform="matrix(0.9983 -0.05867142999999999 0.05867142999999999 0.9983 -56.896788337000004 64.103191367)"  >
<rect style="stroke: none; stroke-width: 1; stroke-dasharray: none; stroke-linecap: butt; stroke-dashoffset: 0; stroke-linejoin: miter; stroke-miterlimit: 4; fill: rgb(254,203,23); fill-rule: nonzero; opacity: 1;"  paint-order="stroke"  x="-1.5" y="-1.5" rx="0" ry="0" width="3" height="3" />
</g>
		<g transform="matrix(0.9845000000000002 -0.1756 0.1756 0.9845000000000002 -48.995819999999995 70.31115000000003)"  >
<rect style="stroke: none; stroke-width: 1; stroke-dasharray: none; stroke-linecap: butt; stroke-dashoffset: 0; stroke-linejoin: miter; stroke-miterlimit: 4; fill: rgb(254,203,23); fill-rule: nonzero; opacity: 1;"  paint-order="stroke"  x="-1.5" y="-1.5" rx="0" ry="0" width="3" height="3" />
</g>
		<g transform="matrix(0.9567 -0.291 0.2909999999999999 0.9566999999999999 -40.30771 75.59842)"  >
<rect style="stroke: none; stroke-width: 1; stroke-dasharray: none; stroke-linecap: butt; stroke-dashoffset: 0; stroke-linejoin: miter; stroke-miterlimit: 4; fill: rgb(254,203,23); fill-rule: nonzero; opacity: 1;"  paint-order="stroke"  x="-1.5" y="-1.5" rx="0" ry="0" width="3" height="3" />
</g>
		<g transform="matrix(0.9149000000000002 -0.4036 0.40359999999999996 0.9149 -31.010659999999973 79.91041000000001)"  >
<rect style="stroke: none; stroke-width: 1; stroke-dasharray: none; stroke-linecap: butt; stroke-dashoffset: 0; stroke-linejoin: miter; stroke-miterlimit: 4; fill: rgb(254,203,23); fill-rule: nonzero; opacity: 1;"  paint-order="stroke"  x="-1.5" y="-1.5" rx="0" ry="0" width="3" height="3" />
</g>
		<g transform="matrix(0.859 -0.5119000000000001 0.5119 0.859 -21.089409999999987 83.09028999999998)"  >
<rect style="stroke: none; stroke-width: 1; stroke-dasharray: none; stroke-linecap: butt; stroke-dashoffset: 0; stroke-linejoin: miter; stroke-miterlimit: 4; fill: rgb(254,203,23); fill-rule: nonzero; opacity: 1;"  paint-order="stroke"  x="-1.5" y="-1.5" rx="0" ry="0" width="3" height="3" />
</g>
		<g transform="matrix(0.7893999999999999 -0.6138 0.6138 0.7894 -10.809719999999999 85.03073999999998)"  >
<rect style="stroke: none; stroke-width: 1; stroke-dasharray: none; stroke-linecap: butt; stroke-dashoffset: 0; stroke-linejoin: miter; stroke-miterlimit: 4; fill: rgb(254,203,23); fill-rule: nonzero; opacity: 1;"  paint-order="stroke"  x="-1.5" y="-1.5" rx="0" ry="0" width="3" height="3" />
</g>
		<g transform="matrix(0.7071 -0.7070999999999998 0.7070999999999998 0.7071 0.007169999999973697 85.69566999999998)"  >
<rect style="stroke: none; stroke-width: 1; stroke-dasharray: none; stroke-linecap: butt; stroke-dashoffset: 0; stroke-linejoin: miter; stroke-miterlimit: 4; fill: rgb(254,203,23); fill-rule: nonzero; opacity: 1;"  paint-order="stroke"  x="-1.5" y="-1.5" rx="0" ry="0" width="3" height="3" />
</g>
		<g transform="matrix(0.6138000000000001 -0.7893999999999999 0.7894 0.6138000000000001 10.692859999999968 85.04522000000003)"  >
<rect style="stroke: none; stroke-width: 1; stroke-dasharray: none; stroke-linecap: butt; stroke-dashoffset: 0; stroke-linejoin: miter; stroke-miterlimit: 4; fill: rgb(254,203,23); fill-rule: nonzero; opacity: 1;"  paint-order="stroke"  x="-1.5" y="-1.5" rx="0" ry="0" width="3" height="3" />
</g>
		<g transform="matrix(0.5119000000000001 -0.859 0.859 0.5119 21.11648999999997 83.08679000000001)"  >
<rect style="stroke: none; stroke-width: 1; stroke-dasharray: none; stroke-linecap: butt; stroke-dashoffset: 0; stroke-linejoin: miter; stroke-miterlimit: 4; fill: rgb(254,203,23); fill-rule: nonzero; opacity: 1;"  paint-order="stroke"  x="-1.5" y="-1.5" rx="0" ry="0" width="3" height="3" />
</g>
		<g transform="matrix(0.40360000000000007 -0.9149000000000002 0.9149 0.4036 30.95681000000002 79.88383999999999)"  >
<rect style="stroke: none; stroke-width: 1; stroke-dasharray: none; stroke-linecap: butt; stroke-dashoffset: 0; stroke-linejoin: miter; stroke-miterlimit: 4; fill: rgb(254,203,23); fill-rule: nonzero; opacity: 1;"  paint-order="stroke"  x="-1.5" y="-1.5" rx="0" ry="0" width="3" height="3" />
</g>
		<g transform="matrix(0.291 -0.9567 0.9566999999999999 0.2909999999999999 40.241420000000005 75.62889000000001)"  >
<rect style="stroke: none; stroke-width: 1; stroke-dasharray: none; stroke-linecap: butt; stroke-dashoffset: 0; stroke-linejoin: miter; stroke-miterlimit: 4; fill: rgb(254,203,23); fill-rule: nonzero; opacity: 1;"  paint-order="stroke"  x="-1.5" y="-1.5" rx="0" ry="0" width="3" height="3" />
</g>
		<g transform="matrix(0.17559999999999992 -0.9845000000000002 0.9845000000000002 0.17559999999999992 48.94065000000003 70.28787999999997)"  >
<rect style="stroke: none; stroke-width: 1; stroke-dasharray: none; stroke-linecap: butt; stroke-dashoffset: 0; stroke-linejoin: miter; stroke-miterlimit: 4; fill: rgb(254,203,23); fill-rule: nonzero; opacity: 1;"  paint-order="stroke"  x="-1.5" y="-1.5" rx="0" ry="0" width="3" height="3" />
</g>
		<g transform="matrix(0.058671600000000025 -0.9982999999999999 0.9982999999999999 0.058671600000000025 56.949804039999975 64.06853956)"  >
<rect style="stroke: none; stroke-width: 1; stroke-dasharray: none; stroke-linecap: butt; stroke-dashoffset: 0; stroke-linejoin: miter; stroke-miterlimit: 4; fill: rgb(254,203,23); fill-rule: nonzero; opacity: 1;"  paint-order="stroke"  x="-1.5" y="-1.5" rx="0" ry="0" width="3" height="3" />
</g>
		<g transform="matrix(0.9983 -0.05867142999999999 0.05867142999999999 0.9983 64.103177367 56.90128833700004)"  >
<rect style="stroke: none; stroke-width: 1; stroke-dasharray: none; stroke-linecap: butt; stroke-dashoffset: 0; stroke-linejoin: miter; stroke-miterlimit: 4; fill: rgb(254,203,23); fill-rule: nonzero; opacity: 1;"  paint-order="stroke"  x="-1.5" y="-1.5" rx="0" ry="0" width="3" height="3" />
</g>
		<g transform="matrix(0.9845000000000002 -0.1756 0.1756 0.9845000000000002 70.32065000000003 49.00182000000001)"  >
<rect style="stroke: none; stroke-width: 1; stroke-dasharray: none; stroke-linecap: butt; stroke-dashoffset: 0; stroke-linejoin: miter; stroke-miterlimit: 4; fill: rgb(254,203,23); fill-rule: nonzero; opacity: 1;"  paint-order="stroke"  x="-1.5" y="-1.5" rx="0" ry="0" width="3" height="3" />
</g>
		<g transform="matrix(0.9567 -0.291 0.2909999999999999 0.9566999999999999 75.60692 40.30051)"  >
<rect style="stroke: none; stroke-width: 1; stroke-dasharray: none; stroke-linecap: butt; stroke-dashoffset: 0; stroke-linejoin: miter; stroke-miterlimit: 4; fill: rgb(254,203,23); fill-rule: nonzero; opacity: 1;"  paint-order="stroke"  x="-1.5" y="-1.5" rx="0" ry="0" width="3" height="3" />
</g>
		<g transform="matrix(0.9149000000000002 -0.4036 0.40359999999999996 0.9149 79.90651000000003 31.005259999999993)"  >
<rect style="stroke: none; stroke-width: 1; stroke-dasharray: none; stroke-linecap: butt; stroke-dashoffset: 0; stroke-linejoin: miter; stroke-miterlimit: 4; fill: rgb(254,203,23); fill-rule: nonzero; opacity: 1;"  paint-order="stroke"  x="-1.5" y="-1.5" rx="0" ry="0" width="3" height="3" />
</g>
		<g transform="matrix(0.859 -0.5119000000000001 0.5119 0.859 83.08818999999997 21.081709999999987)"  >
<rect style="stroke: none; stroke-width: 1; stroke-dasharray: none; stroke-linecap: butt; stroke-dashoffset: 0; stroke-linejoin: miter; stroke-miterlimit: 4; fill: rgb(254,203,23); fill-rule: nonzero; opacity: 1;"  paint-order="stroke"  x="-1.5" y="-1.5" rx="0" ry="0" width="3" height="3" />
</g>
		<g transform="matrix(0.7893999999999999 -0.6138 0.6138 0.7894 84.96385999999998 10.722680000000011)"  >
<rect style="stroke: none; stroke-width: 1; stroke-dasharray: none; stroke-linecap: butt; stroke-dashoffset: 0; stroke-linejoin: miter; stroke-miterlimit: 4; fill: rgb(254,203,23); fill-rule: nonzero; opacity: 1;"  paint-order="stroke"  x="-1.5" y="-1.5" rx="0" ry="0" width="3" height="3" />
</g>
		<g transform="matrix(0.7071 -0.7070999999999998 0.7070999999999998 0.7071 85.69426999999999 -0.00856999999997754)"  >
<rect style="stroke: none; stroke-width: 1; stroke-dasharray: none; stroke-linecap: butt; stroke-dashoffset: 0; stroke-linejoin: miter; stroke-miterlimit: 4; fill: rgb(254,203,23); fill-rule: nonzero; opacity: 1;"  paint-order="stroke"  x="-1.5" y="-1.5" rx="0" ry="0" width="3" height="3" />
</g>
</g>
</g>
</g>
</g>
<g transform="matrix(1.9692780337941629 0 0 1.9692780337941629 641.2918575596531 720.3589503353747)" id="text-logo-path"  >
<path style="stroke: rgb(255,255,255); stroke-width: 0; stroke-dasharray: none; stroke-linecap: butt; stroke-dashoffset: 0; stroke-linejoin: miter; stroke-miterlimit: 10; fill: rgb(254,203,24); fill-rule: nonzero; opacity: 1;"  paint-order="stroke"  transform=" translate(-321.03000000000003, 20.5)" d="M 21.15 0 L 2.48 0 L 2.48 -0.6 L 3.23 -0.6 Q 4.75 -0.6 5.86 -1.67 Q 6.97 -2.74 7 -4.26 L 7 -4.26 L 7 -37.05 Q 6.97 -38.57 5.86 -39.64 Q 4.75 -40.71 3.23 -40.71 L 3.23 -40.71 L 2.48 -40.71 L 2.48 -41.31 L 19.56 -41.31 Q 22.87 -41.31 25.54 -40.74 Q 28.2 -40.16 30.25 -38.98 Q 32.29 -37.8 33.42 -35.82 Q 34.54 -33.85 34.54 -31.2 L 34.54 -31.2 Q 34.54 -27.37 32.42 -25.11 Q 30.31 -22.85 27.28 -22.47 L 27.28 -22.47 Q 31.86 -22.01 34.83 -19.07 L 34.83 -19.07 Q 37.77 -16.13 37.77 -11.61 L 37.77 -11.61 Q 37.77 -7.81 35.69 -5.19 Q 33.62 -2.56 29.9 -1.28 Q 26.19 0 21.15 0 L 21.15 0 Z M 15.87 -38.75 L 15.87 -2.68 L 18.61 -2.68 Q 18.67 -2.68 18.7 -2.68 L 18.7 -2.68 Q 22.76 -2.68 25.18 -5.04 Q 27.6 -7.4 27.6 -12.13 L 27.6 -12.13 Q 27.6 -14.75 26.84 -16.64 Q 26.07 -18.52 24.7 -19.62 Q 23.33 -20.71 21.62 -21.26 Q 19.91 -21.81 17.86 -21.81 L 17.86 -21.81 L 17.86 -22.38 Q 19.33 -22.38 20.57 -22.82 Q 21.81 -23.25 22.86 -24.17 Q 23.91 -25.09 24.5 -26.69 Q 25.09 -28.29 25.09 -30.45 L 25.09 -30.45 Q 25.09 -34.74 23.1 -36.75 Q 21.12 -38.75 17.54 -38.75 L 17.54 -38.75 L 15.87 -38.75 Z M 69.28 0 L 41.54 0 L 41.54 -0.58 L 42.26 -0.58 Q 43.56 -0.58 44.49 -1.48 Q 45.43 -2.39 45.46 -3.69 L 45.46 -3.69 L 45.46 -31.69 Q 45.46 -33.01 44.49 -33.91 Q 43.53 -34.8 42.2 -34.8 L 42.2 -34.8 L 41.54 -34.8 L 41.54 -35.41 L 57.91 -35.41 L 57.91 -34.8 L 57.24 -34.8 Q 55.89 -34.8 54.94 -33.91 Q 53.99 -33.01 53.96 -31.69 L 53.96 -31.69 L 53.96 -2.36 L 61.07 -2.36 Q 64.73 -2.39 67.28 -4.62 Q 69.83 -6.86 71.01 -10.86 L 71.01 -10.86 L 71.62 -10.86 L 69.28 0 Z M 83.11 0 L 71.33 0 L 71.33 -0.58 L 71.79 -0.58 Q 73.03 -0.58 74.28 -1.34 Q 75.54 -2.1 76.31 -3.66 L 76.31 -3.66 L 88.47 -29.87 Q 88.53 -29.99 88.89 -30.78 Q 89.25 -31.57 89.58 -32.32 Q 89.91 -33.07 90.3 -34.01 Q 90.69 -34.94 90.93 -35.75 Q 91.18 -36.56 91.24 -37.02 L 91.24 -37.02 L 91.73 -37.02 L 107.51 -3.89 Q 108.32 -2.22 109.57 -1.4 Q 110.83 -0.58 112.15 -0.58 L 112.15 -0.58 L 112.61 -0.58 L 112.61 0 L 95.27 0 L 95.27 -0.58 L 95.73 -0.58 Q 96.91 -0.58 97.63 -1.5 L 97.63 -1.5 Q 98.04 -1.99 98.04 -2.62 L 98.04 -2.62 Q 98.04 -3.17 97.75 -3.86 L 97.75 -3.86 L 95.44 -9.25 L 82.94 -9.25 L 80.61 -3.77 Q 80.38 -3.14 80.38 -2.62 L 80.38 -2.62 Q 80.38 -1.9 80.78 -1.44 L 80.78 -1.44 Q 81.5 -0.58 82.65 -0.58 L 82.65 -0.58 L 83.11 -0.58 L 83.11 0 Z M 89.25 -23.88 L 83.95 -11.58 L 94.46 -11.58 L 89.25 -23.88 Z M 111.98 -17.72 L 111.98 -17.72 Q 111.98 -26.39 117.61 -31.27 Q 123.24 -36.15 133.24 -36.15 L 133.24 -36.15 Q 137.1 -36.15 140.59 -35.41 Q 144.07 -34.66 146.55 -33.48 L 146.55 -33.48 L 146.55 -24.08 L 146.09 -24.08 Q 144.65 -29.3 141.57 -31.56 Q 138.48 -33.82 133.84 -33.82 L 133.84 -33.82 Q 127.56 -33.82 124.27 -29.53 Q 120.97 -25.24 120.97 -17.83 Q 120.97 -10.43 124.24 -6.06 Q 127.51 -1.7 133.27 -1.58 L 133.27 -1.58 Q 133.33 -1.58 133.38 -1.58 L 133.38 -1.58 Q 139.61 -1.56 142.69 -4.55 L 142.69 -4.55 Q 145.8 -7.55 146.9 -14.78 L 146.9 -14.78 L 147.36 -14.78 L 148.05 -5.91 Q 146.2 -2.88 142.44 -1.05 Q 138.68 0.78 133.24 0.78 L 133.24 0.78 Q 123.33 0.72 117.65 -4.15 Q 111.98 -9.02 111.98 -17.72 Z M 152.92 -34.83 L 152.28 -34.83 L 152.28 -35.41 L 168.62 -35.41 L 168.62 -34.83 L 167.98 -34.83 Q 166.66 -34.83 165.69 -33.94 Q 164.73 -33.04 164.7 -31.75 L 164.7 -31.75 L 164.7 -3.72 Q 164.73 -2.39 165.68 -1.48 Q 166.63 -0.58 167.98 -0.58 L 167.98 -0.58 L 168.59 -0.58 L 168.59 0 L 152.31 0 L 152.31 -0.58 L 152.92 -0.58 Q 154.27 -0.58 155.22 -1.48 Q 156.17 -2.39 156.2 -3.72 L 156.2 -3.72 L 156.2 -31.69 Q 156.17 -33.01 155.22 -33.92 Q 154.27 -34.83 152.92 -34.83 L 152.92 -34.83 Z M 166.43 -16.54 L 166.43 -16.54 L 178.56 -32.55 Q 179.19 -33.39 178.79 -34.14 Q 178.38 -34.89 177.35 -34.89 L 177.35 -34.89 L 176.86 -34.89 L 176.86 -35.41 L 188.87 -35.41 L 188.87 -34.89 L 188.64 -34.89 Q 185.44 -34.89 183.31 -32.76 L 183.31 -32.76 L 173.51 -21.2 L 185.93 -3.95 Q 187.14 -2.25 188.38 -1.41 Q 189.62 -0.58 191.23 -0.55 L 191.23 -0.55 L 191.23 0 L 186.68 0 Q 178.44 0 174.98 -4.55 L 174.98 -4.55 Q 174.58 -5.13 172.38 -8.2 Q 170.17 -11.26 168.3 -13.89 Q 166.43 -16.51 166.43 -16.54 Z M 213.79 0 L 192.38 0 L 192.38 -0.58 L 193.13 -0.58 Q 194.69 -0.58 195.78 -1.67 Q 196.88 -2.77 196.91 -4.29 L 196.91 -4.29 L 196.91 -37.34 Q 196.91 -38.75 195.78 -39.73 Q 194.66 -40.71 193.16 -40.71 L 193.16 -40.71 L 192.41 -40.71 L 192.38 -41.31 L 213.79 -41.28 Q 224.25 -41.28 230.32 -35.74 Q 236.4 -30.19 236.4 -20.63 L 236.4 -20.63 Q 236.4 -11.09 230.32 -5.55 Q 224.25 0 213.79 0 L 213.79 0 Z M 205.75 -38.81 L 205.75 -2.51 L 213.07 -2.51 Q 219.41 -2.51 223.09 -7.38 Q 226.78 -12.24 226.78 -20.63 L 226.78 -20.63 Q 226.78 -29.04 223.09 -33.92 Q 219.41 -38.81 213.07 -38.81 L 213.07 -38.81 L 205.75 -38.81 Z M 256.51 0 L 239.75 0 L 239.75 -0.6 L 240.47 -0.6 Q 241.85 -0.6 242.84 -1.5 Q 243.84 -2.39 243.86 -3.72 L 243.86 -3.72 L 243.86 -31.69 Q 243.84 -33.01 242.84 -33.91 Q 241.85 -34.8 240.47 -34.8 L 240.47 -34.8 L 239.75 -34.8 L 239.75 -35.41 L 256.48 -35.41 L 256.48 -34.8 L 255.82 -34.8 Q 254.41 -34.8 253.41 -33.92 Q 252.42 -33.04 252.36 -31.72 L 252.36 -31.72 L 252.36 -3.72 Q 252.39 -2.39 253.4 -1.48 Q 254.41 -0.58 255.82 -0.58 L 255.82 -0.58 L 256.51 -0.58 L 256.51 0 Z M 268.67 0 L 256.89 0 L 256.89 -0.58 L 257.35 -0.58 Q 258.59 -0.58 259.84 -1.34 Q 261.09 -2.1 261.87 -3.66 L 261.87 -3.66 L 274.03 -29.87 Q 274.08 -29.99 274.45 -30.78 Q 274.81 -31.57 275.14 -32.32 Q 275.47 -33.07 275.86 -34.01 Q 276.25 -34.94 276.49 -35.75 Q 276.74 -36.56 276.79 -37.02 L 276.79 -37.02 L 277.28 -37.02 L 293.07 -3.89 Q 293.88 -2.22 295.13 -1.4 Q 296.38 -0.58 297.71 -0.58 L 297.71 -0.58 L 298.17 -0.58 L 298.17 0 L 280.83 0 L 280.83 -0.58 L 281.29 -0.58 Q 282.47 -0.58 283.19 -1.5 L 283.19 -1.5 Q 283.59 -1.99 283.59 -2.62 L 283.59 -2.62 Q 283.59 -3.17 283.3 -3.86 L 283.3 -3.86 L 281 -9.25 L 268.5 -9.25 L 266.16 -3.77 Q 265.93 -3.14 265.93 -2.62 L 265.93 -2.62 Q 265.93 -1.9 266.34 -1.44 L 266.34 -1.44 Q 267.06 -0.58 268.21 -0.58 L 268.21 -0.58 L 268.67 -0.58 L 268.67 0 Z M 274.81 -23.88 L 269.5 -11.58 L 280.02 -11.58 L 274.81 -23.88 Z M 307.19 0 L 295.98 0 L 295.98 -0.58 L 296.79 -0.58 Q 298.28 -0.58 299.36 -1.43 Q 300.44 -2.28 300.65 -3.77 L 300.65 -3.77 L 305.23 -36.15 L 305.72 -36.15 L 322.4 -11.21 L 338.04 -36.15 L 338.56 -36.15 L 343.28 -3.51 Q 343.6 -2.13 344.64 -1.35 Q 345.67 -0.58 347.06 -0.58 L 347.06 -0.58 L 347.89 -0.58 L 347.89 0 L 331.47 0 L 331.47 -0.58 L 332.31 -0.58 Q 333.46 -0.58 333.95 -1.34 Q 334.44 -2.1 334.35 -2.94 L 334.35 -2.94 L 332.05 -19.82 L 322.63 -4.87 Q 322.4 -4.49 322.05 -3.86 Q 321.71 -3.23 321.1 -1.64 Q 320.5 -0.06 320.5 1.12 L 320.5 1.12 L 319.98 1.12 L 306.35 -19.53 L 304.33 -2.94 Q 304.25 -2.16 304.77 -1.37 Q 305.28 -0.58 306.38 -0.58 L 306.38 -0.58 L 307.19 -0.58 L 307.19 0 Z M 349.16 -17.69 L 349.16 -17.69 Q 349.16 -26.19 354.88 -31.17 Q 360.6 -36.15 370.02 -36.15 L 370.02 -36.15 Q 376.27 -36.15 380.99 -33.94 Q 385.72 -31.72 388.33 -27.51 Q 390.93 -23.31 390.93 -17.69 L 390.93 -17.69 Q 390.93 -9.22 385.2 -4.22 Q 379.47 0.78 370.02 0.78 L 370.02 0.78 Q 360.6 0.78 354.88 -4.22 Q 349.16 -9.22 349.16 -17.69 Z M 358.21 -17.69 L 358.21 -17.69 Q 358.21 -10.26 361.42 -5.91 Q 364.63 -1.56 370.02 -1.56 L 370.02 -1.56 Q 375.43 -1.56 378.65 -5.91 Q 381.86 -10.26 381.86 -17.69 L 381.86 -17.69 Q 381.86 -25.15 378.65 -29.49 Q 375.43 -33.82 370.02 -33.82 L 370.02 -33.82 Q 364.63 -33.82 361.42 -29.49 Q 358.21 -25.15 358.21 -17.69 Z M 410.12 0 L 393.61 0 L 393.61 -0.58 L 394.59 -0.58 Q 395.95 -0.58 396.88 -1.44 Q 397.82 -2.3 397.82 -3.6 L 397.82 -3.6 L 397.82 -29.53 Q 397.82 -31.31 397.66 -32.99 Q 397.5 -34.66 397.33 -35.43 L 397.33 -35.43 L 397.18 -36.21 L 397.76 -36.18 L 424.78 -12.39 L 424.78 -31.8 Q 424.78 -33.1 423.86 -33.95 Q 422.94 -34.8 421.58 -34.8 L 421.58 -34.8 L 420.58 -34.8 L 420.58 -35.41 L 437.14 -35.41 L 437.14 -34.8 L 436.13 -34.8 Q 434.81 -34.8 433.87 -33.97 Q 432.94 -33.13 432.88 -31.89 L 432.88 -31.89 L 432.88 -6.11 Q 432.88 -4.26 433.04 -2.55 Q 433.19 -0.84 433.34 -0.03 L 433.34 -0.03 L 433.51 0.78 L 432.99 0.78 L 405.88 -23.1 L 405.88 -3.6 Q 405.91 -2.3 406.85 -1.44 Q 407.79 -0.58 409.14 -0.58 L 409.14 -0.58 L 410.12 -0.58 L 410.12 0 Z M 440.94 -34.8 L 440.25 -34.8 L 440.25 -35.41 L 460.19 -35.41 Q 469.7 -35.41 475.08 -30.7 Q 480.47 -25.99 480.47 -17.66 Q 480.47 -9.33 475.08 -4.67 Q 469.7 0 460.19 0 L 460.19 0 L 440.28 0 L 440.28 -0.58 L 441 -0.58 Q 442.36 -0.58 443.32 -1.51 Q 444.29 -2.45 444.31 -3.77 L 444.31 -3.77 L 444.31 -31.75 Q 444.26 -33.07 443.29 -33.94 Q 442.33 -34.8 440.94 -34.8 L 440.94 -34.8 Z M 452.84 -33.07 L 452.84 -2.36 L 459.5 -2.36 Q 465.06 -2.36 468.25 -6.42 Q 471.45 -10.49 471.45 -17.66 L 471.45 -17.66 Q 471.45 -24.89 468.25 -28.98 Q 465.06 -33.07 459.5 -33.07 L 459.5 -33.07 L 452.84 -33.07 Z M 485.6 -20.71 L 485.6 -20.71 Q 485.6 -30.62 492.05 -36.37 Q 498.5 -42.12 509.71 -42.12 L 509.71 -42.12 Q 518.18 -42.12 524.37 -38.92 L 524.37 -38.92 L 524.49 -28.81 L 524 -28.81 Q 520.97 -39.64 510.29 -39.64 L 510.29 -39.64 Q 503.29 -39.64 499.25 -34.58 Q 495.22 -29.53 495.22 -20.83 L 495.22 -20.83 Q 495.22 -12.1 499.08 -6.96 Q 502.94 -1.81 509.54 -1.64 L 509.54 -1.64 Q 516.48 -1.64 520.08 -5.16 Q 523.68 -8.67 525.04 -17.23 L 525.04 -17.23 L 525.53 -17.23 L 526.1 -7.06 Q 521.32 0.84 509.54 0.84 L 509.54 0.84 Q 502.31 0.81 496.92 -1.74 Q 491.53 -4.29 488.56 -9.18 Q 485.6 -14.06 485.6 -20.71 Z M 531 -17.69 L 531 -17.69 Q 531 -26.19 536.72 -31.17 Q 542.44 -36.15 551.86 -36.15 L 551.86 -36.15 Q 558.11 -36.15 562.83 -33.94 Q 567.56 -31.72 570.17 -27.51 Q 572.77 -23.31 572.77 -17.69 L 572.77 -17.69 Q 572.77 -9.22 567.04 -4.22 Q 561.31 0.78 551.86 0.78 L 551.86 0.78 Q 542.44 0.78 536.72 -4.22 Q 531 -9.22 531 -17.69 Z M 540.05 -17.69 L 540.05 -17.69 Q 540.05 -10.26 543.26 -5.91 Q 546.47 -1.56 551.86 -1.56 L 551.86 -1.56 Q 557.27 -1.56 560.49 -5.91 Q 563.7 -10.26 563.7 -17.69 L 563.7 -17.69 Q 563.7 -25.15 560.49 -29.49 Q 557.27 -33.82 551.86 -33.82 L 551.86 -33.82 Q 546.47 -33.82 543.26 -29.49 Q 540.05 -25.15 540.05 -17.69 Z M 592.85 0 L 576.09 0 L 576.09 -0.6 L 576.81 -0.6 Q 578.19 -0.6 579.18 -1.5 Q 580.18 -2.39 580.21 -3.72 L 580.21 -3.72 L 580.21 -31.69 Q 580.18 -33.01 579.18 -33.91 Q 578.19 -34.8 576.81 -34.8 L 576.81 -34.8 L 576.09 -34.8 L 576.09 -35.41 L 592.82 -35.41 L 592.82 -34.8 L 592.16 -34.8 Q 590.75 -34.8 589.76 -33.92 Q 588.76 -33.04 588.7 -31.72 L 588.7 -31.72 L 588.7 -3.72 Q 588.73 -2.39 589.74 -1.48 Q 590.75 -0.58 592.16 -0.58 L 592.16 -0.58 L 592.85 -0.58 L 592.85 0 Z M 612.56 0 L 596.05 0 L 596.05 -0.58 L 597.03 -0.58 Q 598.38 -0.58 599.32 -1.44 Q 600.26 -2.3 600.26 -3.6 L 600.26 -3.6 L 600.26 -29.53 Q 600.26 -31.31 600.1 -32.99 Q 599.94 -34.66 599.77 -35.43 L 599.77 -35.43 L 599.62 -36.21 L 600.2 -36.18 L 627.22 -12.39 L 627.22 -31.8 Q 627.22 -33.1 626.3 -33.95 Q 625.38 -34.8 624.02 -34.8 L 624.02 -34.8 L 623.01 -34.8 L 623.01 -35.41 L 639.58 -35.41 L 639.58 -34.8 L 638.57 -34.8 Q 637.25 -34.8 636.31 -33.97 Q 635.37 -33.13 635.32 -31.89 L 635.32 -31.89 L 635.32 -6.11 Q 635.32 -4.26 635.47 -2.55 Q 635.63 -0.84 635.78 -0.03 L 635.78 -0.03 L 635.95 0.78 L 635.43 0.78 L 608.32 -23.1 L 608.32 -3.6 Q 608.35 -2.3 609.29 -1.44 Q 610.22 -0.58 611.58 -0.58 L 611.58 -0.58 L 612.56 -0.58 L 612.56 0 Z" stroke-linecap="round" />
</g>
<g transform="matrix(1.9692780337941629 0 0 1.9692780337941629 651.866499822758 839.3501398307499)" id="tagline-6701b465-bcf8-40fb-9426-77f456222124-logo-path"  >
<path style="stroke: rgb(255,255,255); stroke-width: 0; stroke-dasharray: none; stroke-linecap: butt; stroke-dashoffset: 0; stroke-linejoin: miter; stroke-miterlimit: 4; fill: rgb(254,203,24); fill-rule: nonzero; opacity: 1;"  paint-order="stroke"  transform=" translate(-137.42999999999998, 21.850038846757652)" d="M 17.27 3.4 L 14.55 2.58 L 14.62 2.38 Q 14.62 1.7 13.46 1.63 L 13.46 1.63 Q 12.04 0.75 10.91 -0.68 Q 9.79 -2.11 9.38 -3.2 L 9.38 -3.2 Q 8.91 -4.28 8.91 -4.35 L 8.91 -4.35 Q 8.91 -4.56 9.15 -4.69 Q 9.38 -4.83 9.72 -5.03 L 9.72 -5.03 Q 10.13 -5.37 10.61 -5.37 L 10.61 -5.37 Q 10.88 -5.37 11.12 -5.07 Q 11.36 -4.76 11.76 -4.01 L 11.76 -4.01 Q 12.58 -2.58 14.55 -1.73 Q 16.52 -0.88 19.04 -0.88 L 19.04 -0.88 Q 22.1 -0.88 24.75 -2.11 L 24.75 -2.11 Q 26.52 -2.86 27.34 -3.57 Q 28.15 -4.28 28.15 -5.17 L 28.15 -5.17 Q 28.15 -5.98 27.4 -7.14 L 27.4 -7.14 Q 27.2 -7.68 26.83 -8.13 Q 26.45 -8.57 25.77 -9.18 L 25.77 -9.18 Q 25.36 -9.52 24.21 -10.68 L 24.21 -10.68 Q 23.12 -11.08 21.96 -11.76 L 21.96 -11.76 L 20.54 -12.44 Q 18.7 -13.26 16.29 -15.27 Q 13.87 -17.27 13.06 -18.77 L 13.06 -18.77 Q 12.1 -19.65 11.56 -21.22 Q 11.02 -22.78 11.02 -24.62 L 11.02 -24.62 Q 11.02 -27.06 12.04 -29.1 L 12.04 -29.1 Q 12.85 -30.94 15.64 -34.2 Q 18.43 -37.47 19.92 -38.49 L 19.92 -38.49 L 21.69 -40.19 Q 21.76 -40.46 21.9 -40.49 Q 22.03 -40.53 22.1 -40.53 L 22.1 -40.53 Q 22.3 -40.66 23.53 -41.17 Q 24.75 -41.68 26.11 -42.98 L 26.11 -42.98 Q 30.74 -45.22 33.56 -46.21 Q 36.38 -47.19 38.22 -47.19 L 38.22 -47.19 Q 40.8 -47.06 42.6 -45.59 Q 44.4 -44.13 44.74 -41.75 L 44.74 -41.75 Q 44.88 -41.34 44.88 -40.53 L 44.88 -40.53 Q 44.88 -38.08 43.11 -35.26 Q 41.34 -32.44 39.1 -31.14 L 39.1 -31.14 Q 37.4 -30.4 36.72 -30.4 L 36.72 -30.4 Q 36.24 -30.4 36.07 -30.74 Q 35.9 -31.08 35.97 -31.82 L 35.97 -31.82 Q 35.97 -32.44 36.41 -33.22 Q 36.86 -34 38.42 -35.77 L 38.42 -35.77 Q 41.21 -39.78 41.21 -41.75 L 41.21 -41.75 Q 41.21 -42.91 40.19 -42.98 L 40.19 -42.98 Q 39.44 -43.18 36.41 -42.64 Q 33.39 -42.09 33.39 -41.75 L 33.39 -41.75 Q 33.39 -41.68 33.35 -41.51 Q 33.32 -41.34 33.12 -41.41 L 33.12 -41.41 Q 32.84 -41.48 28.08 -38.59 Q 23.32 -35.7 23.19 -35.36 L 23.19 -35.36 Q 23.12 -35.02 22.68 -34.65 Q 22.24 -34.27 21.62 -34 L 21.62 -34 Q 20.33 -33.25 19.24 -31.82 Q 18.16 -30.4 16.66 -27.74 L 16.66 -27.74 Q 15.84 -26.59 15.33 -25.23 Q 14.82 -23.87 14.82 -22.78 L 14.82 -22.78 Q 14.82 -22.03 15.03 -21.49 L 15.03 -21.49 Q 15.37 -20.33 17.14 -18.67 Q 18.9 -17 21.56 -15.44 L 21.56 -15.44 Q 25.02 -13.46 27.37 -11.59 Q 29.72 -9.72 30.33 -8.43 L 30.33 -8.43 Q 31.89 -6.26 31.89 -3.6 L 31.89 -3.6 Q 31.89 -2.65 31.69 -1.84 L 31.69 -1.84 Q 31.14 -0.68 29.99 0.44 Q 28.83 1.56 28.02 1.5 L 28.02 1.5 Q 27.34 1.7 26.86 2.01 Q 26.38 2.31 26.04 2.45 L 26.04 2.45 Q 25.3 2.92 22.47 3.23 Q 19.65 3.54 17.27 3.4 L 17.27 3.4 Z M 48.55 -29.78 Q 48.08 -30.26 47.74 -31.42 Q 47.4 -32.57 47.74 -32.57 L 47.74 -32.57 Q 48.28 -32.64 48.99 -33.76 Q 49.71 -34.88 49.64 -35.63 L 49.64 -35.63 Q 49.64 -35.9 49.84 -36.14 Q 50.05 -36.38 50.32 -36.45 L 50.32 -36.45 Q 50.86 -36.79 51.27 -36.79 L 51.27 -36.79 Q 52.43 -36.79 53.38 -35.16 L 53.38 -35.16 Q 53.79 -34.27 53.79 -33.59 L 53.79 -33.59 Q 53.79 -32.98 53.45 -32.33 Q 53.11 -31.69 52.22 -30.67 L 52.22 -30.67 Q 51.07 -29.1 50.05 -29.1 L 50.05 -29.1 Q 49.37 -29.1 48.55 -29.78 L 48.55 -29.78 Z M 41.96 -2.18 Q 41 -3.13 41 -4.9 L 41 -4.9 Q 41 -5.85 41.34 -6.53 L 41.34 -6.53 Q 41.34 -6.87 41.48 -7.34 Q 41.62 -7.82 41.62 -7.96 L 41.62 -7.96 Q 41.55 -8.36 42.16 -10.2 L 42.16 -10.2 Q 43.38 -12.92 45.42 -19.79 L 45.42 -19.79 Q 45.42 -20.13 45.7 -20.37 Q 45.97 -20.6 46.51 -20.67 L 46.51 -20.67 Q 47.06 -20.81 47.26 -20.81 L 47.26 -20.81 Q 47.67 -20.81 47.97 -20.5 Q 48.28 -20.2 48.82 -19.38 L 48.82 -19.38 Q 49.23 -18.97 49.23 -18.16 L 49.23 -18.16 Q 49.23 -16.86 48.35 -15.03 L 48.35 -15.03 Q 47.46 -13.06 47.19 -11.63 L 47.19 -11.63 Q 46.38 -9.79 45.9 -8.23 L 45.9 -8.23 Q 45.76 -7.82 45.49 -6.6 Q 45.22 -5.37 44.74 -4.62 L 44.74 -4.62 Q 44.34 -2.72 44 -1.97 Q 43.66 -1.22 43.25 -1.22 L 43.25 -1.22 Q 42.77 -1.22 41.96 -2.18 L 41.96 -2.18 Z M 78 -3.13 Q 76.64 -3.13 75.75 -3.71 Q 74.87 -4.28 74.26 -5.64 L 74.26 -5.64 Q 73.64 -7.82 73.64 -10 L 73.64 -10 Q 73.64 -11.02 73.85 -11.42 L 73.85 -11.42 Q 74.12 -11.7 74.09 -12.61 Q 74.05 -13.53 74.05 -13.94 L 74.05 -13.94 Q 73.98 -15.5 73.1 -15.5 L 73.1 -15.5 Q 72.49 -15.5 71.74 -15.03 L 71.74 -15.03 Q 67.93 -12.65 65.35 -10.95 Q 62.76 -9.25 60.38 -7.14 L 60.38 -7.14 Q 59.43 -6.05 58.96 -5.24 Q 58.48 -4.42 58.28 -4.11 Q 58.07 -3.81 57.73 -3.81 L 57.73 -3.81 Q 57.32 -3.67 57.19 -3.67 L 57.19 -3.67 Q 56.85 -3.67 56.37 -4.05 Q 55.9 -4.42 55.76 -4.56 L 55.76 -4.56 Q 55.49 -4.83 54.88 -5.47 Q 54.26 -6.12 54.2 -6.39 L 54.2 -6.39 Q 54.2 -6.94 54.64 -8.91 Q 55.08 -10.88 55.35 -11.42 L 55.35 -11.42 Q 55.56 -11.42 55.96 -12.27 Q 56.37 -13.12 56.71 -13.6 L 56.71 -13.6 Q 56.92 -14.62 58.48 -18.29 L 58.48 -18.29 Q 59.43 -19.92 59.81 -21.01 Q 60.18 -22.1 60.32 -23.73 L 60.32 -23.73 L 60.32 -23.87 Q 60.32 -24.14 60.52 -24.31 Q 60.72 -24.48 60.93 -24.48 L 60.93 -24.48 Q 61.4 -24.82 61.81 -24.82 L 61.81 -24.82 Q 62.7 -24.82 63.58 -23.73 L 63.58 -23.73 Q 64.6 -22.44 64.6 -21.01 L 64.6 -21.01 Q 64.6 -19.24 62.36 -15.44 L 62.36 -15.44 Q 62.15 -14.96 61.78 -14.08 Q 61.4 -13.19 61.4 -12.85 L 61.4 -12.85 L 65.21 -15.44 Q 65.76 -16.05 68.14 -17.61 Q 70.52 -19.18 71.47 -19.38 L 71.47 -19.38 Q 73.1 -20.13 73.51 -20.13 L 73.51 -20.13 Q 74.32 -20.13 75.72 -18.9 Q 77.11 -17.68 77.38 -16.86 L 77.38 -16.86 Q 77.38 -16.12 77.52 -15.78 L 77.52 -15.78 Q 77.86 -14.42 77.86 -12.58 L 77.86 -12.58 Q 77.86 -11.36 77.69 -10.37 Q 77.52 -9.38 77.25 -9.25 L 77.25 -9.25 Q 77.25 -9.18 77.32 -9.04 Q 77.38 -8.91 77.59 -8.91 L 77.59 -8.91 L 77.59 -8.57 Q 77.04 -8.57 77.45 -7.41 Q 77.86 -6.26 78.54 -5.64 L 78.54 -5.64 Q 79.22 -4.96 79.22 -4.28 L 79.22 -4.28 Q 79.22 -3.47 78 -3.13 L 78 -3.13 Z M 91.94 -0.75 Q 90.98 -0.61 90.51 -0.61 L 90.51 -0.61 Q 87.99 -0.61 86.36 -2.18 Q 84.73 -3.74 84.73 -6.53 L 84.73 -6.53 Q 84.46 -9.52 86.05 -13.94 Q 87.65 -18.36 90.1 -21.35 L 90.1 -21.35 Q 91.8 -23.32 93.02 -24.55 Q 94.25 -25.77 95.27 -26.18 L 95.27 -26.18 Q 96.7 -26.79 98.46 -26.79 L 98.46 -26.79 Q 99.69 -26.52 100.88 -25.77 Q 102.07 -25.02 102.07 -24.28 L 102.07 -24.28 L 102.41 -23.94 Q 102.82 -23.94 103.16 -22.95 Q 103.5 -21.96 103.5 -20.81 L 103.5 -20.81 Q 103.5 -19.86 103.16 -19.18 L 103.16 -19.18 Q 102.88 -17.88 102.24 -16.93 Q 101.59 -15.98 100.98 -15.98 L 100.98 -15.98 Q 100.23 -15.98 100.23 -15.57 L 100.23 -15.57 Q 100.23 -15.3 99.96 -15.3 L 99.96 -15.3 Q 99.62 -15.3 99.14 -15.71 Q 98.67 -16.12 98.46 -16.66 L 98.46 -16.66 Q 98.46 -16.86 98.74 -17.82 Q 99.01 -18.77 99.28 -19.92 L 99.28 -19.92 Q 99.48 -20.74 99.48 -21.35 L 99.48 -21.35 Q 99.48 -22.71 98.46 -22.71 L 98.46 -22.71 Q 97.92 -22.71 97.38 -22.44 L 97.38 -22.44 Q 94.66 -20.94 92.55 -17.68 Q 90.44 -14.42 89.01 -8.7 L 89.01 -8.7 Q 88.67 -7.21 88.67 -6.32 L 88.67 -6.32 Q 88.67 -5.64 88.77 -5.24 Q 88.88 -4.83 89.01 -4.76 L 89.01 -4.76 Q 89.35 -4.62 90.44 -4.62 L 90.44 -4.62 Q 92.96 -4.62 93.98 -5.24 L 93.98 -5.24 Q 96.15 -6.39 98.8 -8.36 L 98.8 -8.36 Q 99.08 -8.57 99.62 -9.08 Q 100.16 -9.59 100.64 -9.79 L 100.64 -9.79 Q 101.12 -10.54 101.52 -10.71 Q 101.93 -10.88 102.82 -10.88 L 102.82 -10.88 Q 103.7 -10.61 104.24 -10.17 Q 104.79 -9.72 104.24 -9.45 L 104.24 -9.45 Q 104.04 -9.45 103.97 -9.32 Q 103.9 -9.18 103.9 -9.11 L 103.9 -9.11 Q 104.04 -8.77 102.82 -7.41 Q 101.59 -6.05 100.1 -4.86 Q 98.6 -3.67 98.06 -3.67 L 98.06 -3.67 Q 97.78 -3.67 97.58 -3.6 Q 97.38 -3.54 97.38 -3.26 L 97.38 -3.26 Q 97.38 -2.99 95.3 -2.01 Q 93.23 -1.02 91.94 -0.75 L 91.94 -0.75 Z M 120.63 -2.38 Q 118.93 -0.88 116.55 -0.88 L 116.55 -0.88 Q 114.85 -0.88 113.32 -1.7 Q 111.79 -2.52 110.77 -3.94 L 110.77 -3.94 Q 109.89 -5.03 109.48 -6.39 Q 109.07 -7.75 109.07 -9.72 L 109.07 -9.72 Q 109.07 -10.4 109.21 -12.44 L 109.21 -12.44 Q 109.41 -14.96 110.87 -17.68 Q 112.34 -20.4 114.51 -22.54 Q 116.69 -24.68 118.8 -25.5 L 118.8 -25.5 Q 119.88 -26.18 120.77 -26.18 L 120.77 -26.18 Q 121.24 -26.18 121.72 -26.11 Q 122.2 -26.04 122.74 -25.98 L 122.74 -25.98 Q 124.24 -25.77 125.02 -25.4 Q 125.8 -25.02 126.34 -24.28 L 126.34 -24.28 Q 128.04 -22.58 128.04 -20.33 L 128.04 -20.33 Q 127.77 -18.7 125.94 -16.59 Q 124.1 -14.48 121.52 -13.19 L 121.52 -13.19 Q 120.29 -12.78 118.73 -12.78 L 118.73 -12.78 Q 116.62 -12.78 115.33 -13.67 L 115.33 -13.67 Q 114.72 -13.87 114.38 -13.87 L 114.38 -13.87 Q 113.76 -13.87 113.46 -13.06 Q 113.15 -12.24 112.88 -10.06 L 112.88 -10.06 Q 112.81 -9.59 112.81 -8.7 L 112.81 -8.7 Q 112.81 -5.24 115.12 -4.9 L 115.12 -4.9 Q 116.69 -4.56 117.37 -4.56 L 117.37 -4.56 Q 118.18 -4.56 119.2 -5.1 L 119.2 -5.1 L 120.5 -5.85 Q 120.9 -6.05 121.24 -6.39 Q 121.58 -6.73 121.86 -7 L 121.86 -7 Q 121.99 -7.14 122.26 -7.45 Q 122.54 -7.75 122.77 -7.85 Q 123.01 -7.96 123.22 -7.96 L 123.22 -7.96 Q 123.49 -7.96 123.83 -7.65 Q 124.17 -7.34 124.37 -7.21 L 124.37 -7.21 Q 124.98 -7.21 124.64 -6.36 Q 124.3 -5.51 123.18 -4.39 Q 122.06 -3.26 120.63 -2.38 L 120.63 -2.38 Z M 120.56 -16.8 Q 121.72 -17.27 122.91 -18.5 Q 124.1 -19.72 124.1 -20.54 L 124.1 -20.54 Q 124.1 -21.35 123.49 -21.9 Q 122.88 -22.44 121.79 -22.44 L 121.79 -22.44 Q 120.97 -22.44 120.56 -22.3 L 120.56 -22.3 Q 119.61 -22.03 118.32 -20.84 Q 117.03 -19.65 116.08 -18.43 Q 115.12 -17.2 115.33 -17 L 115.33 -17 Q 115.67 -16.39 117.98 -16.39 L 117.98 -16.39 Q 119.54 -16.39 120.56 -16.8 L 120.56 -16.8 Z M 151.23 -1.56 Q 150.76 -1.77 149.87 -2.52 Q 148.99 -3.26 148.72 -3.88 L 148.72 -3.88 Q 148.65 -3.94 148.65 -4.28 L 148.65 -4.28 Q 148.65 -4.76 148.85 -5.37 Q 149.06 -5.98 149.26 -5.98 L 149.26 -5.98 Q 149.46 -5.78 150.38 -7.04 Q 151.3 -8.3 151.37 -8.64 L 151.37 -8.64 Q 151.44 -8.91 151.81 -9.15 Q 152.18 -9.38 152.32 -9.45 L 152.32 -9.45 Q 152.66 -10 153.31 -10.64 Q 153.95 -11.29 154.16 -11.56 L 154.16 -11.56 Q 154.43 -11.9 155.18 -12.68 Q 155.92 -13.46 156.54 -14.08 L 156.54 -14.08 Q 158.17 -15.57 158.92 -16.39 L 158.92 -16.39 Q 162.45 -20.2 162.59 -20.81 L 162.59 -20.81 Q 162.66 -20.88 162.86 -21.08 Q 163.06 -21.28 163.4 -21.49 L 163.4 -21.49 Q 164.42 -22.17 165.31 -23.05 L 165.31 -23.05 Q 165.38 -23.53 166.06 -24.55 Q 166.74 -25.57 167.42 -26.25 L 167.42 -26.25 Q 167.96 -27 168.4 -27.91 Q 168.84 -28.83 169.05 -29.51 L 169.05 -29.51 L 169.18 -30.12 Q 169.18 -30.4 168.84 -30.57 Q 168.5 -30.74 168.06 -30.87 Q 167.62 -31.01 167.35 -31.08 L 167.35 -31.08 Q 165.78 -31.55 164.63 -31.55 L 164.63 -31.55 Q 162.11 -31.55 159.46 -29.72 L 159.46 -29.72 Q 158.51 -29.51 157.96 -29.24 L 157.96 -29.24 Q 156.74 -28.83 156.4 -28.9 L 156.4 -28.9 Q 156.2 -28.97 155.79 -29.51 Q 155.38 -30.06 155.04 -30.4 L 155.04 -30.4 L 154.36 -31.82 L 156.47 -32.98 Q 160.68 -35.77 163.81 -35.77 L 163.81 -35.77 Q 164.9 -35.77 165.72 -35.5 L 165.72 -35.5 Q 166.33 -35.5 166.94 -35.36 Q 167.55 -35.22 167.69 -35.16 L 167.69 -35.16 Q 168.5 -35.22 169.83 -33.86 Q 171.16 -32.5 171.84 -31.08 L 171.84 -31.08 Q 172.65 -29.85 172.65 -28.56 L 172.65 -28.56 Q 172.65 -26.52 170.48 -23.32 L 170.48 -23.32 Q 168.98 -21.56 165.92 -18.22 Q 162.86 -14.89 162.18 -14.35 L 162.18 -14.35 Q 161.36 -13.94 158.24 -10.4 Q 155.11 -6.87 155.38 -6.87 L 155.38 -6.87 L 155.38 -6.73 Q 155.38 -7.14 159.63 -7.79 Q 163.88 -8.43 166.19 -8.43 L 166.19 -8.43 Q 166.94 -8.43 167.21 -8.3 L 167.21 -8.3 Q 167.35 -8.02 167.45 -8.06 Q 167.55 -8.09 167.55 -8.16 L 167.55 -8.16 Q 167.62 -8.43 168.5 -8.43 L 168.5 -8.43 Q 170.07 -8.43 172.18 -7.82 L 172.18 -7.82 Q 172.38 -7.75 172.89 -7.62 Q 173.4 -7.48 173.6 -7.34 Q 173.81 -7.21 173.81 -7.07 L 173.81 -7.07 Q 173.88 -7 174.05 -6.7 Q 174.22 -6.39 174.56 -5.98 L 174.56 -5.98 Q 175.17 -5.51 175.17 -5.17 L 175.17 -5.17 Q 175.17 -4.69 174.01 -4.69 L 174.01 -4.69 Q 173.2 -4.69 171.29 -5.03 L 171.29 -5.03 Q 169.52 -5.03 168.37 -4.83 L 168.37 -4.83 Q 168.16 -4.69 167.11 -4.66 Q 166.06 -4.62 165.51 -4.62 L 165.51 -4.62 Q 165.17 -4.69 164.56 -4.69 L 164.56 -4.69 Q 163 -4.69 160.14 -3.74 L 160.14 -3.74 Q 158.64 -3.13 155.24 -2.24 Q 151.84 -1.36 151.23 -1.56 L 151.23 -1.56 Z M 190.06 -1.43 Q 189.31 -1.43 187.54 -2.38 Q 185.78 -3.33 184.76 -4.22 L 184.76 -4.22 Q 182.85 -6.05 181.73 -8.87 Q 180.61 -11.7 180.61 -14.62 L 180.61 -14.62 Q 180.61 -15.23 180.74 -16.59 L 180.74 -16.59 Q 181.49 -20.88 183.97 -25.13 Q 186.46 -29.38 189.79 -32.23 L 189.79 -32.23 Q 191.56 -33.8 193.02 -34.65 Q 194.48 -35.5 196.45 -35.97 L 196.45 -35.97 Q 197.4 -36.24 199.44 -36.24 L 199.44 -36.24 Q 200.74 -36.24 202.13 -35.7 Q 203.52 -35.16 204.48 -34.37 Q 205.43 -33.59 205.43 -32.91 L 205.43 -32.91 Q 205.43 -32.3 205.33 -32.16 Q 205.22 -32.03 204.75 -32.23 L 204.75 -32.23 L 204.07 -32.23 L 204.75 -30.26 Q 205.02 -29.65 205.22 -28.76 Q 205.43 -27.88 205.43 -27.13 L 205.43 -27.13 Q 205.43 -25.91 204.68 -22.41 Q 203.93 -18.9 203.39 -17.68 L 203.39 -17.68 Q 203.12 -17.14 203.12 -16.25 L 203.12 -16.25 L 201.42 -12.51 Q 201.14 -12.31 201.01 -12.04 Q 200.87 -11.76 201.08 -11.56 L 201.08 -11.56 Q 201.08 -11.29 200.36 -10.03 Q 199.65 -8.77 199.44 -8.77 L 199.44 -8.77 Q 199.38 -8.77 199.24 -8.74 Q 199.1 -8.7 199.1 -8.5 L 199.1 -8.5 Q 199.1 -8.23 198.19 -7.07 Q 197.27 -5.92 196.11 -4.76 L 196.11 -4.76 Q 195.09 -3.67 193.09 -2.55 Q 191.08 -1.43 190.06 -1.43 L 190.06 -1.43 Z M 189.86 -5.71 Q 191.49 -5.71 192.44 -6.66 L 192.44 -6.66 Q 193.73 -7.55 195.33 -9.42 Q 196.93 -11.29 197.68 -12.99 L 197.68 -12.99 Q 198.36 -13.94 198.8 -14.96 Q 199.24 -15.98 200.26 -18.97 L 200.26 -18.97 Q 200.74 -19.65 200.97 -20.71 Q 201.21 -21.76 201.21 -22.64 L 201.21 -22.64 Q 201.21 -25.64 201.55 -26.86 L 201.55 -26.86 Q 201.55 -28.76 201.48 -29.27 Q 201.42 -29.78 200.94 -30.33 L 200.94 -30.33 Q 200.19 -30.94 199.31 -30.94 L 199.31 -30.94 Q 198.83 -30.94 197.54 -30.43 Q 196.25 -29.92 195.7 -29.58 L 195.7 -29.58 Q 195.3 -29.44 195.09 -29.44 L 195.09 -29.44 Q 194.68 -29.44 194.38 -29.61 Q 194.07 -29.78 194.07 -30.06 L 194.07 -30.06 Q 194.07 -30.53 193.66 -30.53 L 193.66 -30.53 Q 193.12 -30.53 192.17 -29.72 Q 191.22 -28.9 190.13 -27.61 L 190.13 -27.61 Q 189.04 -26.52 188.12 -25.19 Q 187.2 -23.87 187.2 -23.6 L 187.2 -23.6 Q 187.2 -23.39 186.97 -22.85 Q 186.73 -22.3 186.59 -21.96 L 186.59 -21.96 Q 186.12 -21.22 185.3 -19.35 Q 184.48 -17.48 184.28 -16.66 L 184.28 -16.66 L 184.28 -12.99 Q 184.28 -11.29 184.48 -10.34 Q 184.69 -9.38 185.23 -8.36 L 185.23 -8.36 Q 185.5 -7.89 186.12 -7.21 Q 186.73 -6.53 186.86 -6.32 L 186.86 -6.32 Q 187.34 -5.85 187.65 -5.68 Q 187.95 -5.51 188.43 -5.51 L 188.43 -5.51 Q 188.97 -5.51 189.86 -5.71 L 189.86 -5.71 Z M 212.43 -1.56 Q 211.96 -1.77 211.07 -2.52 Q 210.19 -3.26 209.92 -3.88 L 209.92 -3.88 Q 209.85 -3.94 209.85 -4.28 L 209.85 -4.28 Q 209.85 -4.76 210.05 -5.37 Q 210.26 -5.98 210.46 -5.98 L 210.46 -5.98 Q 210.66 -5.78 211.58 -7.04 Q 212.5 -8.3 212.57 -8.64 L 212.57 -8.64 Q 212.64 -8.91 213.01 -9.15 Q 213.38 -9.38 213.52 -9.45 L 213.52 -9.45 Q 213.86 -10 214.51 -10.64 Q 215.15 -11.29 215.36 -11.56 L 215.36 -11.56 Q 215.63 -11.9 216.38 -12.68 Q 217.12 -13.46 217.74 -14.08 L 217.74 -14.08 Q 219.37 -15.57 220.12 -16.39 L 220.12 -16.39 Q 223.65 -20.2 223.79 -20.81 L 223.79 -20.81 Q 223.86 -20.88 224.06 -21.08 Q 224.26 -21.28 224.6 -21.49 L 224.6 -21.49 Q 225.62 -22.17 226.51 -23.05 L 226.51 -23.05 Q 226.58 -23.53 227.26 -24.55 Q 227.94 -25.57 228.62 -26.25 L 228.62 -26.25 Q 229.16 -27 229.6 -27.91 Q 230.04 -28.83 230.25 -29.51 L 230.25 -29.51 L 230.38 -30.12 Q 230.38 -30.4 230.04 -30.57 Q 229.7 -30.74 229.26 -30.87 Q 228.82 -31.01 228.55 -31.08 L 228.55 -31.08 Q 226.98 -31.55 225.83 -31.55 L 225.83 -31.55 Q 223.31 -31.55 220.66 -29.72 L 220.66 -29.72 Q 219.71 -29.51 219.16 -29.24 L 219.16 -29.24 Q 217.94 -28.83 217.6 -28.9 L 217.6 -28.9 Q 217.4 -28.97 216.99 -29.51 Q 216.58 -30.06 216.24 -30.4 L 216.24 -30.4 L 215.56 -31.82 L 217.67 -32.98 Q 221.88 -35.77 225.01 -35.77 L 225.01 -35.77 Q 226.1 -35.77 226.92 -35.5 L 226.92 -35.5 Q 227.53 -35.5 228.14 -35.36 Q 228.75 -35.22 228.89 -35.16 L 228.89 -35.16 Q 229.7 -35.22 231.03 -33.86 Q 232.36 -32.5 233.04 -31.08 L 233.04 -31.08 Q 233.85 -29.85 233.85 -28.56 L 233.85 -28.56 Q 233.85 -26.52 231.68 -23.32 L 231.68 -23.32 Q 230.18 -21.56 227.12 -18.22 Q 224.06 -14.89 223.38 -14.35 L 223.38 -14.35 Q 222.56 -13.94 219.44 -10.4 Q 216.31 -6.87 216.58 -6.87 L 216.58 -6.87 L 216.58 -6.73 Q 216.58 -7.14 220.83 -7.79 Q 225.08 -8.43 227.39 -8.43 L 227.39 -8.43 Q 228.14 -8.43 228.41 -8.3 L 228.41 -8.3 Q 228.55 -8.02 228.65 -8.06 Q 228.75 -8.09 228.75 -8.16 L 228.75 -8.16 Q 228.82 -8.43 229.7 -8.43 L 229.7 -8.43 Q 231.27 -8.43 233.38 -7.82 L 233.38 -7.82 Q 233.58 -7.75 234.09 -7.62 Q 234.6 -7.48 234.8 -7.34 Q 235.01 -7.21 235.01 -7.07 L 235.01 -7.07 Q 235.08 -7 235.25 -6.7 Q 235.42 -6.39 235.76 -5.98 L 235.76 -5.98 Q 236.37 -5.51 236.37 -5.17 L 236.37 -5.17 Q 236.37 -4.69 235.21 -4.69 L 235.21 -4.69 Q 234.4 -4.69 232.49 -5.03 L 232.49 -5.03 Q 230.72 -5.03 229.57 -4.83 L 229.57 -4.83 Q 229.36 -4.69 228.31 -4.66 Q 227.26 -4.62 226.71 -4.62 L 226.71 -4.62 Q 226.37 -4.69 225.76 -4.69 L 225.76 -4.69 Q 224.2 -4.69 221.34 -3.74 L 221.34 -3.74 Q 219.84 -3.13 216.44 -2.24 Q 213.04 -1.36 212.43 -1.56 L 212.43 -1.56 Z M 254.05 0.68 Q 253.44 1.16 251.87 -0.41 L 251.87 -0.41 Q 251.46 -0.75 251.46 -1.22 L 251.46 -1.22 Q 251.46 -1.56 252.01 -4.08 L 252.01 -4.08 Q 252.14 -5.03 252.28 -5.44 L 252.28 -5.44 Q 252.62 -7.07 253.13 -8.94 Q 253.64 -10.81 253.78 -11.36 L 253.78 -11.36 Q 254.32 -11.63 256.22 -18.02 L 256.22 -18.02 Q 257.24 -21.69 258.54 -25.57 L 258.54 -25.57 Q 259.15 -27.47 259.49 -28.9 Q 259.83 -30.33 259.96 -30.74 L 259.96 -30.74 Q 259.35 -30.4 257.35 -29.21 Q 255.34 -28.02 253.57 -26.66 L 253.57 -26.66 Q 253.44 -26.59 250.99 -24.82 L 250.99 -24.82 Q 250.44 -24.48 249.53 -23.8 Q 248.61 -23.12 248 -22.78 L 248 -22.78 Q 246.98 -21.96 246.33 -21.52 Q 245.68 -21.08 245.41 -21.08 L 245.41 -21.08 Q 245.28 -21.08 244.73 -21.35 L 244.73 -21.35 Q 243.44 -22.51 243.44 -23.6 L 243.44 -23.6 Q 243.44 -24 243.64 -24.41 L 243.64 -24.41 Q 243.92 -24.48 246.09 -26.04 L 246.09 -26.04 Q 248.54 -27.81 248.88 -27.95 L 248.88 -27.95 Q 249.02 -27.95 249.63 -28.46 Q 250.24 -28.97 250.78 -29.31 L 250.78 -29.31 Q 250.99 -29.58 253.98 -31.69 L 253.98 -31.69 L 257.58 -34.34 Q 263.3 -37.88 263.84 -37.74 L 263.84 -37.74 Q 264.18 -37.67 264.96 -37.09 Q 265.74 -36.52 265.81 -35.97 L 265.81 -35.97 Q 265.95 -35.7 265.95 -35.5 L 265.95 -35.5 Q 265.95 -35.02 265.4 -33.8 L 265.4 -33.8 Q 264.79 -32.5 263.19 -27.81 Q 261.6 -23.12 260.78 -20.4 L 260.78 -20.4 Q 260.3 -18.63 259.35 -16.05 L 259.35 -16.05 Q 259.15 -15.44 258.77 -14.31 Q 258.4 -13.19 258.13 -12.04 L 258.13 -12.04 Q 257.52 -10.54 256.77 -7.89 Q 256.02 -5.24 255.61 -3.4 L 255.61 -3.4 L 254.93 -1.36 Q 254.32 0.48 254.05 0.68 L 254.05 0.68 Z" stroke-linecap="round" />
</g>
<g transform="matrix(1.9692780337941629 0 0 1.9692780337941629 640.9307912014061 350.62498998624716)" id="tagline-b2be5eea-5d4a-469d-8559-3994b21a4450-logo-path"  >
<path style="stroke: rgb(255,255,255); stroke-width: 0; stroke-dasharray: none; stroke-linecap: butt; stroke-dashoffset: 0; stroke-linejoin: miter; stroke-miterlimit: 4; fill: rgb(254,203,24); fill-rule: nonzero; opacity: 1;"  paint-order="stroke"  transform=" translate(-38.2, 39.21)" d="M 40.14 0 L 4.7 0 L 4.7 -1.15 L 6.13 -1.15 Q 9.02 -1.15 11.13 -3.17 Q 13.23 -5.2 13.29 -8.09 L 13.29 -8.09 L 13.29 -70.33 Q 13.23 -73.23 11.13 -75.25 Q 9.02 -77.27 6.13 -77.27 L 6.13 -77.27 L 4.7 -77.27 L 4.7 -78.42 L 37.13 -78.42 Q 43.42 -78.42 48.48 -77.33 Q 53.54 -76.23 57.42 -73.99 Q 61.3 -71.75 63.44 -68 Q 65.57 -64.26 65.57 -59.23 L 65.57 -59.23 Q 65.57 -51.95 61.55 -47.66 Q 57.53 -43.37 51.79 -42.66 L 51.79 -42.66 Q 60.48 -41.78 66.12 -36.2 L 66.12 -36.2 Q 71.7 -30.63 71.7 -22.04 L 71.7 -22.04 Q 71.7 -14.82 67.76 -9.84 Q 63.82 -4.87 56.77 -2.43 Q 49.71 0 40.14 0 L 40.14 0 Z M 30.13 -73.55 L 30.13 -5.09 L 35.33 -5.09 Q 35.44 -5.09 35.49 -5.09 L 35.49 -5.09 Q 43.2 -5.09 47.8 -9.57 Q 52.39 -14.05 52.39 -23.02 L 52.39 -23.02 Q 52.39 -28 50.94 -31.58 Q 49.49 -35.16 46.89 -37.24 Q 44.3 -39.32 41.04 -40.36 Q 37.79 -41.4 33.91 -41.4 L 33.91 -41.4 L 33.91 -42.49 Q 36.7 -42.49 39.05 -43.31 Q 41.4 -44.13 43.39 -45.88 Q 45.39 -47.63 46.51 -50.67 Q 47.63 -53.7 47.63 -57.8 L 47.63 -57.8 Q 47.63 -65.95 43.86 -69.75 Q 40.09 -73.55 33.3 -73.55 L 33.3 -73.55 L 30.13 -73.55 Z" stroke-linecap="round" />
</g>
</svg>